<svg width="266" height="172" viewBox="0 0 266 172" fill="none" xmlns="http://www.w3.org/2000/svg">
<circle cx="3.00929" cy="3.27857" r="3.00929" fill="#FF9800"/>
<circle cx="3.00943" cy="97.5696" r="3.00929" fill="#FF9800"/>
<circle cx="3.00943" cy="50.424" r="3.00929" fill="#FF9800"/>
<circle cx="3.00943" cy="144.715" r="3.00929" fill="#FF9800"/>
<circle cx="3.00943" cy="26.8512" r="3.00929" fill="#FF9800"/>
<circle cx="3.00943" cy="121.142" r="3.00929" fill="#FF9800"/>
<circle cx="3.00943" cy="73.9972" r="3.00929" fill="#FF9800"/>
<circle cx="3.00943" cy="168.288" r="3.00929" fill="#FF9800"/>
<circle cx="144.446" cy="3.27876" r="3.00929" fill="#FF9800"/>
<circle cx="144.446" cy="97.5696" r="3.00929" fill="#FF9800"/>
<circle cx="144.446" cy="50.424" r="3.00929" fill="#FF9800"/>
<circle cx="144.446" cy="144.715" r="3.00929" fill="#FF9800"/>
<circle cx="144.446" cy="26.8512" r="3.00929" fill="#FF9800"/>
<circle cx="144.446" cy="121.142" r="3.00929" fill="#FF9800"/>
<circle cx="144.446" cy="73.9972" r="3.00929" fill="#FF9800"/>
<circle cx="144.446" cy="168.288" r="3.00929" fill="#FF9800"/>
<circle cx="73.7279" cy="3.27876" r="3.00929" fill="#FF9800"/>
<circle cx="73.7279" cy="97.5696" r="3.00929" fill="#FF9800"/>
<circle cx="73.7279" cy="50.424" r="3.00929" fill="#FF9800"/>
<circle cx="73.7279" cy="144.715" r="3.00929" fill="#FF9800"/>
<circle cx="73.7279" cy="26.8512" r="3.00929" fill="#FF9800"/>
<circle cx="73.7279" cy="121.142" r="3.00929" fill="#FF9800"/>
<circle cx="73.7279" cy="73.9972" r="3.00929" fill="#FF9800"/>
<circle cx="73.7279" cy="168.288" r="3.00929" fill="#FF9800"/>
<circle cx="215.164" cy="3.27876" r="3.00929" fill="#FF9800"/>
<circle cx="215.164" cy="97.5696" r="3.00929" fill="#FF9800"/>
<circle cx="215.164" cy="50.424" r="3.00929" fill="#FF9800"/>
<circle cx="215.164" cy="144.715" r="3.00929" fill="#FF9800"/>
<circle cx="215.164" cy="26.8512" r="3.00929" fill="#FF9800"/>
<circle cx="215.164" cy="121.142" r="3.00929" fill="#FF9800"/>
<circle cx="215.164" cy="73.9972" r="3.00929" fill="#FF9800"/>
<circle cx="215.164" cy="168.288" r="3.00929" fill="#FF9800"/>
<circle cx="26.5821" cy="3.27876" r="3.00929" fill="#FF9800"/>
<circle cx="26.5821" cy="97.5696" r="3.00929" fill="#FF9800"/>
<circle cx="26.5821" cy="50.424" r="3.00929" fill="#FF9800"/>
<circle cx="26.5821" cy="144.715" r="3.00929" fill="#FF9800"/>
<circle cx="26.5821" cy="26.8512" r="3.00929" fill="#FF9800"/>
<circle cx="26.5821" cy="121.142" r="3.00929" fill="#FF9800"/>
<circle cx="26.5821" cy="73.9972" r="3.00929" fill="#FF9800"/>
<circle cx="26.5821" cy="168.288" r="3.00929" fill="#FF9800"/>
<circle cx="168.019" cy="3.27876" r="3.00929" fill="#FF9800"/>
<circle cx="168.019" cy="97.5696" r="3.00929" fill="#FF9800"/>
<circle cx="168.019" cy="50.424" r="3.00929" fill="#FF9800"/>
<circle cx="168.019" cy="144.715" r="3.00929" fill="#FF9800"/>
<circle cx="168.019" cy="26.8512" r="3.00929" fill="#FF9800"/>
<circle cx="168.019" cy="121.142" r="3.00929" fill="#FF9800"/>
<circle cx="168.019" cy="73.9972" r="3.00929" fill="#FF9800"/>
<circle cx="168.019" cy="168.288" r="3.00929" fill="#FF9800"/>
<circle cx="97.3005" cy="3.27876" r="3.00929" fill="#FF9800"/>
<circle cx="97.3005" cy="97.5696" r="3.00929" fill="#FF9800"/>
<circle cx="97.3005" cy="50.424" r="3.00929" fill="#FF9800"/>
<circle cx="97.3005" cy="144.715" r="3.00929" fill="#FF9800"/>
<circle cx="97.3005" cy="26.8512" r="3.00929" fill="#FF9800"/>
<circle cx="97.3005" cy="121.142" r="3.00929" fill="#FF9800"/>
<circle cx="97.3005" cy="73.9972" r="3.00929" fill="#FF9800"/>
<circle cx="97.3005" cy="168.288" r="3.00929" fill="#FF9800"/>
<circle cx="238.737" cy="3.27876" r="3.00929" fill="#FF9800"/>
<circle cx="238.737" cy="97.5696" r="3.00929" fill="#FF9800"/>
<circle cx="238.737" cy="50.424" r="3.00929" fill="#FF9800"/>
<circle cx="238.737" cy="144.715" r="3.00929" fill="#FF9800"/>
<circle cx="238.737" cy="26.8512" r="3.00929" fill="#FF9800"/>
<circle cx="238.737" cy="121.142" r="3.00929" fill="#FF9800"/>
<circle cx="238.737" cy="73.9972" r="3.00929" fill="#FF9800"/>
<circle cx="238.737" cy="168.288" r="3.00929" fill="#FF9800"/>
<circle cx="50.1551" cy="3.27876" r="3.00929" fill="#FF9800"/>
<circle cx="50.1551" cy="97.5696" r="3.00929" fill="#FF9800"/>
<circle cx="50.1551" cy="50.424" r="3.00929" fill="#FF9800"/>
<circle cx="50.1551" cy="144.715" r="3.00929" fill="#FF9800"/>
<circle cx="50.1551" cy="26.8512" r="3.00929" fill="#FF9800"/>
<circle cx="50.1551" cy="121.142" r="3.00929" fill="#FF9800"/>
<circle cx="50.1551" cy="73.9972" r="3.00929" fill="#FF9800"/>
<circle cx="50.1551" cy="168.288" r="3.00929" fill="#FF9800"/>
<circle cx="191.591" cy="3.27876" r="3.00929" fill="#FF9800"/>
<circle cx="191.591" cy="97.5696" r="3.00929" fill="#FF9800"/>
<circle cx="191.591" cy="50.424" r="3.00929" fill="#FF9800"/>
<circle cx="191.591" cy="144.715" r="3.00929" fill="#FF9800"/>
<circle cx="191.591" cy="26.8512" r="3.00929" fill="#FF9800"/>
<circle cx="191.591" cy="121.142" r="3.00929" fill="#FF9800"/>
<circle cx="191.591" cy="73.9972" r="3.00929" fill="#FF9800"/>
<circle cx="191.591" cy="168.288" r="3.00929" fill="#FF9800"/>
<circle cx="120.873" cy="3.27876" r="3.00929" fill="#FF9800"/>
<circle cx="120.873" cy="97.5696" r="3.00929" fill="#FF9800"/>
<circle cx="120.873" cy="50.424" r="3.00929" fill="#FF9800"/>
<circle cx="120.873" cy="144.715" r="3.00929" fill="#FF9800"/>
<circle cx="120.873" cy="26.8512" r="3.00929" fill="#FF9800"/>
<circle cx="120.873" cy="121.142" r="3.00929" fill="#FF9800"/>
<circle cx="120.873" cy="73.9972" r="3.00929" fill="#FF9800"/>
<circle cx="120.873" cy="168.288" r="3.00929" fill="#FF9800"/>
<circle cx="262.31" cy="3.27876" r="3.00929" fill="#FF9800"/>
<circle cx="262.31" cy="97.5696" r="3.00929" fill="#FF9800"/>
<circle cx="262.31" cy="50.424" r="3.00929" fill="#FF9800"/>
<circle cx="262.31" cy="144.715" r="3.00929" fill="#FF9800"/>
<circle cx="262.31" cy="26.8512" r="3.00929" fill="#FF9800"/>
<circle cx="262.31" cy="121.142" r="3.00929" fill="#FF9800"/>
<circle cx="262.31" cy="73.9972" r="3.00929" fill="#FF9800"/>
<circle cx="262.31" cy="168.288" r="3.00929" fill="#FF9800"/>
</svg>
