<svg width="1440" height="312" viewBox="0 0 1440 312" fill="none" xmlns="http://www.w3.org/2000/svg">
<g clip-path="url(#clip0_41_4159)">
<rect width="1440" height="312" fill="#FEFEFE"/>
<path d="M1933.36 429.422C2043.2 399.277 2006.09 296.049 1973.8 248.202C1873.57 101.499 1819.11 217.522 1654.81 66.5988C1490.51 -84.324 1509.07 -9.24092 1168.35 213.282C827.622 435.805 1148.98 534.992 1207.11 488.602C1265.25 442.211 1327.18 492.443 1385.97 611.454C1444.75 730.464 1717.11 641.179 1709.73 532.364C1702.35 423.549 1796.07 467.102 1933.36 429.422Z" stroke="#4D54A4" stroke-opacity="0.3"/>
<path d="M1892.13 419.793C1991.12 392.574 1957.69 299.451 1928.61 256.292C1838.33 123.962 1789.22 228.646 1641.19 92.5226C1493.17 -43.6011 1509.88 24.1332 1202.8 224.962C895.71 425.79 1185.27 515.205 1237.67 473.34C1290.07 431.476 1345.87 476.78 1398.82 584.136C1451.76 691.492 1697.21 610.883 1690.58 512.713C1683.96 414.544 1768.4 453.817 1892.13 419.793Z" stroke="#4D54A4" stroke-opacity="0.3"/>
<path d="M1860.21 412.153C1950.73 387.31 1920.14 302.235 1893.53 262.803C1810.93 141.898 1766.04 237.517 1630.64 113.135C1495.23 -11.2465 1510.53 50.6327 1229.72 234.023C948.915 417.414 1213.76 499.158 1261.67 460.926C1309.58 422.694 1360.63 464.092 1409.07 562.174C1457.52 660.256 1681.98 586.672 1675.9 496.993C1669.82 407.313 1747.06 443.208 1860.21 412.153Z" stroke="#4D54A4" stroke-opacity="0.3"/>
<path d="M1829.76 405.904C1912.28 383.228 1884.41 305.622 1860.16 269.654C1784.88 159.37 1743.95 246.605 1620.54 133.156C1497.12 19.7069 1511.06 76.1543 1255.05 243.492C999.053 410.83 1240.47 485.365 1284.15 450.481C1327.83 415.596 1374.35 453.355 1418.5 542.824C1462.65 632.292 1667.27 565.134 1661.74 483.324C1656.21 401.515 1726.62 434.249 1829.76 405.904Z" stroke="#4D54A4" stroke-opacity="0.3"/>
<path d="M1796.99 398.096C1870.85 377.756 1845.92 308.22 1824.23 275.994C1756.89 177.187 1720.23 255.368 1609.81 153.736C1499.39 52.1041 1511.85 102.684 1282.71 252.698C1053.56 402.713 1269.59 469.445 1308.69 438.175C1347.79 406.904 1389.42 440.728 1428.91 520.891C1468.39 601.053 1651.53 540.823 1646.6 467.514C1641.67 394.206 1704.67 423.522 1796.99 398.096Z" stroke="#4D54A4" stroke-opacity="0.3"/>
<path d="M1762.54 389.86C1827.27 372.065 1805.41 311.176 1786.39 282.956C1727.35 196.43 1695.24 264.877 1598.44 175.871C1501.64 86.8638 1512.57 131.152 1311.76 262.459C1110.95 393.765 1300.31 452.234 1334.57 424.861C1368.83 397.489 1405.33 427.112 1439.95 497.308C1474.57 567.503 1635.08 514.801 1630.75 450.613C1626.41 386.425 1681.63 412.105 1762.54 389.86Z" stroke="#4D54A4" stroke-opacity="0.3"/>
<path d="M485.22 630.408C542.356 716.944 455.011 765.375 404.196 778.773C247.548 819.114 279.85 706.982 76.7897 711.774C-126.27 716.567 -68.5143 676.283 -168.362 319.484C-268.209 -37.3155 11.3735 87.5445 23.3553 154.19C35.3371 220.835 107.89 223.591 219.543 177.353C331.196 131.114 464.154 355.651 393.821 425.746C323.488 495.841 413.8 522.238 485.22 630.408Z" stroke="#4D54A4" stroke-opacity="0.3"/>
<path d="M451.207 612.268C502.666 690.29 423.911 734.014 378.102 746.123C236.883 782.585 266.054 681.432 83.0192 685.854C-100.016 690.276 -47.9366 653.914 -137.762 332.152C-227.588 10.3906 24.36 122.87 35.1275 182.974C45.895 243.078 111.291 245.528 211.954 203.769C312.618 162.01 432.353 364.464 368.923 427.72C305.492 490.975 386.884 514.74 451.207 612.268Z" stroke="#4D54A4" stroke-opacity="0.3"/>
<path d="M424.759 598.346C471.847 669.664 399.862 709.577 357.984 720.619C228.883 753.867 255.504 661.453 88.1539 665.403C-79.1966 669.353 -31.5975 636.153 -113.886 342.099C-196.175 48.0455 34.2414 150.948 44.1161 205.873C53.9909 260.798 113.785 263.07 205.803 224.963C297.821 186.856 407.398 371.906 349.433 429.675C291.469 487.443 365.899 509.198 424.759 598.346Z" stroke="#4D54A4" stroke-opacity="0.3"/>
<path d="M400.162 584.364C443.072 649.398 377.428 685.826 339.242 695.91C221.527 726.276 245.828 641.977 93.2476 645.633C-59.3323 649.289 -15.9242 618.992 -90.8561 350.813C-165.788 82.6332 44.2572 176.417 53.2429 226.511C62.2286 276.605 116.744 278.658 200.652 243.872C284.56 209.085 384.405 377.834 331.539 430.543C278.673 483.252 346.526 503.071 400.162 584.364Z" stroke="#4D54A4" stroke-opacity="0.3"/>
<path d="M373.034 570.049C411.41 628.285 352.626 660.955 318.436 670.01C213.041 697.278 234.842 621.747 98.2504 625.106C-38.3407 628.465 0.534817 601.3 -66.396 361.097C-133.327 120.894 54.6534 204.793 62.6696 249.664C70.686 294.535 119.487 296.344 194.62 265.134C269.753 233.925 359.042 385.042 311.687 432.289C264.332 479.537 325.063 497.254 373.034 570.049Z" stroke="#4D54A4" stroke-opacity="0.3"/>
<path d="M344.501 555.023C378.153 606.042 326.656 634.628 296.701 642.544C204.359 666.38 223.43 600.241 103.741 603.126C-15.947 606.01 18.1068 582.236 -40.643 371.843C-99.3929 161.45 65.3625 235.006 72.4058 274.307C79.449 313.607 122.212 315.212 188.036 287.911C253.859 260.61 332.163 392.992 290.687 434.35C249.212 475.709 302.436 491.251 344.501 555.023Z" stroke="#4D54A4" stroke-opacity="0.3"/>
</g>
<defs>
<clipPath id="clip0_41_4159">
<rect width="1440" height="312" fill="white"/>
</clipPath>
</defs>
</svg>
