<svg width="16" height="16" viewBox="0 0 16 16" fill="none" xmlns="http://www.w3.org/2000/svg">
<path d="M8.00016 1.33337C5.42016 1.33337 3.3335 3.42004 3.3335 6.00004C3.3335 9.50004 8.00016 14.6667 8.00016 14.6667C8.00016 14.6667 12.6668 9.50004 12.6668 6.00004C12.6668 3.42004 10.5802 1.33337 8.00016 1.33337ZM4.66683 6.00004C4.66683 4.16004 6.16016 2.66671 8.00016 2.66671C9.84016 2.66671 11.3335 4.16004 11.3335 6.00004C11.3335 7.92004 9.4135 10.7934 8.00016 12.5867C6.6135 10.8067 4.66683 7.90004 4.66683 6.00004Z" fill="#424242"/>
<path d="M8.00016 7.66658C8.92064 7.66658 9.66683 6.92039 9.66683 5.99992C9.66683 5.07944 8.92064 4.33325 8.00016 4.33325C7.07969 4.33325 6.3335 5.07944 6.3335 5.99992C6.3335 6.92039 7.07969 7.66658 8.00016 7.66658Z" fill="#424242"/>
</svg>
