<svg width="144" height="36" viewBox="0 0 144 36" fill="none" xmlns="http://www.w3.org/2000/svg">
<path d="M9.224 20.072C12.344 20.072 16.856 20.264 16.856 24.92C16.856 28.712 14.504 30.536 11.816 30.536C7.304 30.536 6.824 26.408 6.824 24.584L6.872 24.536H0.296C0.296 35.192 8.936 35.912 12.152 35.912C19.064 35.912 23.768 31.304 23.768 24.92C23.768 19.112 19.832 17.384 18.632 17V16.904C20.552 15.992 22.712 13.88 22.712 10.424C22.712 3.272 16.712 0.919998 12.152 0.919998C4.472 0.919998 0.872 5.48 0.872 11.864H7.112C7.112 10.664 7.112 6.296 11.72 6.296C15.416 6.296 15.992 9.368 15.992 10.664C15.992 15.08 12.344 15.272 10.28 15.272H9.224V20.072ZM28.6089 35H43.3929C53.8569 35 58.9449 27.608 58.9449 17.672C58.9449 6.344 52.2729 0.727998 43.3929 0.727998H28.6089V35ZM36.1449 7.064H41.5209C48.9609 7.064 51.4089 11.48 51.4089 18.392C51.4089 25.976 47.2329 28.664 42.8649 28.664H36.1449V7.064ZM65.2843 35H72.4363V11H72.5323L80.1163 26.36H85.9243L93.5563 10.76H93.6523V35H100.708V0.727998H90.7723L82.9963 15.848L75.0763 0.727998H65.2843V35ZM111.615 35L115.215 27.416H132.543L135.903 35H143.199L127.887 0.775997H120.303L104.751 35H111.615ZM124.239 7.208L129.807 20.456H118.431L124.191 7.208H124.239Z" fill="#FF9800"/>
</svg>
